HIERARCHY
ROOT Hips
{
	OFFSET 0.000000 0.000000 0.000000
	CHANNELS 6 Xposition Yposition Zposition Zrotation Yrotation Xrotation 
	JOINT Spine1
	{
		OFFSET -0.013727 5.003763 -0.053727
		CHANNELS 3 Zrotation Yrotation Xrotation
		JOINT Spine2
		{
			OFFSET -0.000000 7.125302 -0.029825
			CHANNELS 3 Zrotation Yrotation Xrotation
			JOINT Chest
			{
				OFFSET -0.000001 7.550065 -0.815971
				CHANNELS 3 Zrotation Yrotation Xrotation
				JOINT Neck1
				{
					OFFSET -0.181677 26.311296 -0.553348
					CHANNELS 3 Zrotation Yrotation Xrotation
					JOINT Neck2
					{
						OFFSET -0.000003 7.709399 2.302586
						CHANNELS 3 Zrotation Yrotation Xrotation
						JOINT Head
						{
							OFFSET -0.000005 6.128912 1.953707
							CHANNELS 3 Zrotation Yrotation Xrotation
							JOINT HeadEnd
							{
								OFFSET 0.003598 16.065401 -1.835379
								CHANNELS 3 Zrotation Yrotation Xrotation
								End Site
								{
									OFFSET 0.000000 0.000000 0.000000
								}
							}
							JOINT Jaw
							{
								OFFSET 0.002637 0.475591 3.094941
								CHANNELS 3 Zrotation Yrotation Xrotation
								End Site
								{
									OFFSET 0.000000 0.000000 0.000000
								}
							}
							JOINT LeftEye
							{
								OFFSET 3.206381 5.380208 7.586884
								CHANNELS 3 Zrotation Yrotation Xrotation
								End Site
								{
									OFFSET 0.000000 0.000000 0.000000
								}
							}
							JOINT RightEye
							{
								OFFSET -3.222440 5.361867 7.558233
								CHANNELS 3 Zrotation Yrotation Xrotation
								End Site
								{
									OFFSET 0.000000 0.000000 0.000000
								}
							}
						}
					}
				}
				JOINT LeftShoulder
				{
					OFFSET 1.621652 23.237164 5.113413
					CHANNELS 3 Zrotation Yrotation Xrotation
					JOINT LeftArm
					{
						OFFSET 14.919845 0.000001 -5.502326
						CHANNELS 3 Zrotation Yrotation Xrotation
						JOINT LeftForeArm
						{
							OFFSET 28.739309 0.000002 -0.002588
							CHANNELS 3 Zrotation Yrotation Xrotation
							JOINT LeftHand
							{
								OFFSET 27.093979 -0.000002 0.002608
								CHANNELS 3 Zrotation Yrotation Xrotation
								JOINT LeftHandThumb1
								{
									OFFSET 2.276480 -1.392045 3.191413
									CHANNELS 3 Zrotation Yrotation Xrotation
									JOINT LeftHandThumb2
									{
										OFFSET 4.012841 -1.828126 1.641655
										CHANNELS 3 Zrotation Yrotation Xrotation
										JOINT LeftHandThumb3
										{
											OFFSET 2.798516 0.000001 -0.000003
											CHANNELS 3 Zrotation Yrotation Xrotation
											JOINT LeftHandThumbEnd
											{
												OFFSET 3.180791 -0.000002 0.000002
												CHANNELS 3 Zrotation Yrotation Xrotation
												End Site
												{
													OFFSET 0.000000 0.000000 0.000000
												}
											}
										}
									}
								}
								JOINT LeftHandIndex1
								{
									OFFSET 3.247553 -0.531998 2.296169
									CHANNELS 3 Zrotation Yrotation Xrotation
									JOINT LeftHandIndex2
									{
										OFFSET 6.364580 0.012063 0.178599
										CHANNELS 3 Zrotation Yrotation Xrotation
										JOINT LeftHandIndex3
										{
											OFFSET 3.662366 0.000001 0.000000
											CHANNELS 3 Zrotation Yrotation Xrotation
											JOINT LeftHandIndex4
											{
												OFFSET 2.329242 0.000003 0.000004
												CHANNELS 3 Zrotation Yrotation Xrotation
												JOINT LeftHandIndexEnd
												{
													OFFSET 2.759619 -0.180539 -0.113023
													CHANNELS 3 Zrotation Yrotation Xrotation
													End Site
													{
														OFFSET 0.000000 0.000000 0.000000
													}
												}
											}
										}
									}
								}
								JOINT LeftHandMiddle1
								{
									OFFSET 3.163499 0.240981 1.000332
									CHANNELS 3 Zrotation Yrotation Xrotation
									JOINT LeftHandMiddle2
									{
										OFFSET 6.190778 -0.259276 -1.002548
										CHANNELS 3 Zrotation Yrotation Xrotation
										JOINT LeftHandMiddle3
										{
											OFFSET 4.356523 -0.000006 0.000000
											CHANNELS 3 Zrotation Yrotation Xrotation
											JOINT LeftHandMiddle4
											{
												OFFSET 2.996875 -0.000007 0.000000
												CHANNELS 3 Zrotation Yrotation Xrotation
												JOINT LeftHandMiddleEnd
												{
													OFFSET 2.304294 -0.294572 -0.031739
													CHANNELS 3 Zrotation Yrotation Xrotation
													End Site
													{
														OFFSET 0.000000 0.000000 0.000000
													}
												}
											}
										}
									}
								}
								JOINT LeftHandRing1
								{
									OFFSET 2.882642 -0.053650 -0.322543
									CHANNELS 3 Zrotation Yrotation Xrotation
									JOINT LeftHandRing2
									{
										OFFSET 5.854543 -0.486203 -1.373842
										CHANNELS 3 Zrotation Yrotation Xrotation
										JOINT LeftHandRing3
										{
											OFFSET 4.350580 0.000000 0.000003
											CHANNELS 3 Zrotation Yrotation Xrotation
											JOINT LeftHandRing4
											{
												OFFSET 2.651324 0.000008 0.000003
												CHANNELS 3 Zrotation Yrotation Xrotation
												JOINT LeftHandRingEnd
												{
													OFFSET 1.936110 0.077684 -0.000070
													CHANNELS 3 Zrotation Yrotation Xrotation
													End Site
													{
														OFFSET 0.000000 0.000000 0.000000
													}
												}
											}
										}
									}
								}
								JOINT LeftHandPinky1
								{
									OFFSET 2.865500 -0.310004 -1.600378
									CHANNELS 3 Zrotation Yrotation Xrotation
									JOINT LeftHandPinky2
									{
										OFFSET 5.087853 -1.331141 -1.771231
										CHANNELS 3 Zrotation Yrotation Xrotation
										JOINT LeftHandPinky3
										{
											OFFSET 3.070975 0.000004 0.000001
											CHANNELS 3 Zrotation Yrotation Xrotation
											JOINT LeftHandPinky4
											{
												OFFSET 1.549668 -0.000000 0.000001
												CHANNELS 3 Zrotation Yrotation Xrotation
												JOINT LeftHandPinkyEnd
												{
													OFFSET 1.944895 -0.157802 0.057219
													CHANNELS 3 Zrotation Yrotation Xrotation
													End Site
													{
														OFFSET 0.000000 0.000000 0.000000
													}
												}
											}
										}
									}
								}
							}
						}
					}
				}
				JOINT RightShoulder
				{
					OFFSET -1.380118 23.180307 5.214157
					CHANNELS 3 Zrotation Yrotation Xrotation
					JOINT RightArm
					{
						OFFSET -15.037197 0.000012 -5.545605
						CHANNELS 3 Zrotation Yrotation Xrotation
						JOINT RightForeArm
						{
							OFFSET -28.736639 0.000002 -0.002597
							CHANNELS 3 Zrotation Yrotation Xrotation
							JOINT RightHand
							{
								OFFSET -27.133617 -0.000001 0.002612
								CHANNELS 3 Zrotation Yrotation Xrotation
								JOINT RightHandThumb1
								{
									OFFSET -2.274037 -1.383990 3.163127
									CHANNELS 3 Zrotation Yrotation Xrotation
									JOINT RightHandThumb2
									{
										OFFSET -4.011429 -1.827467 1.640914
										CHANNELS 3 Zrotation Yrotation Xrotation
										JOINT RightHandThumb3
										{
											OFFSET -2.794934 -0.000003 -0.000003
											CHANNELS 3 Zrotation Yrotation Xrotation
											JOINT RightHandThumbEnd
											{
												OFFSET -3.183856 0.000002 -0.000001
												CHANNELS 3 Zrotation Yrotation Xrotation
												End Site
												{
													OFFSET 0.000000 0.000000 0.000000
												}
											}
										}
									}
								}
								JOINT RightHandIndex1
								{
									OFFSET -3.253270 -0.520059 2.282866
									CHANNELS 3 Zrotation Yrotation Xrotation
									JOINT RightHandIndex2
									{
										OFFSET -6.341917 0.012473 0.178265
										CHANNELS 3 Zrotation Yrotation Xrotation
										JOINT RightHandIndex3
										{
											OFFSET -3.654875 -0.000009 -0.000001
											CHANNELS 3 Zrotation Yrotation Xrotation
											JOINT RightHandIndex4
											{
												OFFSET -2.327586 -0.000000 -0.000000
												CHANNELS 3 Zrotation Yrotation Xrotation
												JOINT RightHandIndexEnd
												{
													OFFSET -2.761789 -0.180657 -0.113078
													CHANNELS 3 Zrotation Yrotation Xrotation
													End Site
													{
														OFFSET 0.000000 0.000000 0.000000
													}
												}
											}
										}
									}
								}
								JOINT RightHandMiddle1
								{
									OFFSET -3.168107 0.246593 1.001030
									CHANNELS 3 Zrotation Yrotation Xrotation
									JOINT RightHandMiddle2
									{
										OFFSET -6.180830 -0.258835 -1.000896
										CHANNELS 3 Zrotation Yrotation Xrotation
										JOINT RightHandMiddle3
										{
											OFFSET -4.348905 -0.000000 -0.000000
											CHANNELS 3 Zrotation Yrotation Xrotation
											JOINT RightHandMiddle4
											{
												OFFSET -3.000243 -0.000003 -0.000002
												CHANNELS 3 Zrotation Yrotation Xrotation
												JOINT RightHandMiddleEnd
												{
													OFFSET -2.302517 -0.294372 -0.031705
													CHANNELS 3 Zrotation Yrotation Xrotation
													End Site
													{
														OFFSET 0.000000 0.000000 0.000000
													}
												}
											}
										}
									}
								}
								JOINT RightHandRing1
								{
									OFFSET -2.885694 -0.067952 -0.308859
									CHANNELS 3 Zrotation Yrotation Xrotation
									JOINT RightHandRing2
									{
										OFFSET -5.854197 -0.486133 -1.373732
										CHANNELS 3 Zrotation Yrotation Xrotation
										JOINT RightHandRing3
										{
											OFFSET -4.338814 -0.000003 0.000001
											CHANNELS 3 Zrotation Yrotation Xrotation
											JOINT RightHandRing4
											{
												OFFSET -2.654906 -0.000005 0.000003
												CHANNELS 3 Zrotation Yrotation Xrotation
												JOINT RightHandRingEnd
												{
													OFFSET -1.933570 0.077524 -0.000052
													CHANNELS 3 Zrotation Yrotation Xrotation
													End Site
													{
														OFFSET 0.000000 0.000000 0.000000
													}
												}
											}
										}
									}
								}
								JOINT RightHandPinky1
								{
									OFFSET -2.866430 -0.342798 -1.584145
									CHANNELS 3 Zrotation Yrotation Xrotation
									JOINT RightHandPinky2
									{
										OFFSET -5.091371 -1.332054 -1.772385
										CHANNELS 3 Zrotation Yrotation Xrotation
										JOINT RightHandPinky3
										{
											OFFSET -3.062666 -0.000007 0.000000
											CHANNELS 3 Zrotation Yrotation Xrotation
											JOINT RightHandPinky4
											{
												OFFSET -1.546527 0.000005 -0.000003
												CHANNELS 3 Zrotation Yrotation Xrotation
												JOINT RightHandPinkyEnd
												{
													OFFSET -1.945122 -0.157721 0.057211
													CHANNELS 3 Zrotation Yrotation Xrotation
													End Site
													{
														OFFSET 0.000000 0.000000 0.000000
													}
												}
											}
										}
									}
								}
							}
						}
					}
				}
			}
		}
	}
	JOINT LeftLeg
	{
		OFFSET 10.043214 -8.434526 2.595655
		CHANNELS 3 Zrotation Yrotation Xrotation
		JOINT LeftShin
		{
			OFFSET -0.000002 -43.221752 -0.802913
			CHANNELS 3 Zrotation Yrotation Xrotation
			JOINT LeftFoot
			{
				OFFSET 0.000001 -42.155094 -3.481523
				CHANNELS 3 Zrotation Yrotation Xrotation
				JOINT LeftToeBase
				{
					OFFSET -0.000000 -5.059475 13.231529
					CHANNELS 3 Zrotation Yrotation Xrotation
					JOINT LeftToeEnd
					{
						OFFSET -0.009607 -1.647616 6.513017
						CHANNELS 3 Zrotation Yrotation Xrotation
						End Site
						{
							OFFSET 0.000000 0.000000 0.000000
						}
					}
				}
			}
		}
	}
	JOINT RightLeg
	{
		OFFSET -10.047277 -8.295259 2.620317
		CHANNELS 3 Zrotation Yrotation Xrotation
		JOINT RightShin
		{
			OFFSET 0.000001 -43.362209 -0.805556
			CHANNELS 3 Zrotation Yrotation Xrotation
			JOINT RightFoot
			{
				OFFSET 0.000002 -42.117393 -3.478400
				CHANNELS 3 Zrotation Yrotation Xrotation
				JOINT RightToeBase
				{
					OFFSET -0.000001 -5.079609 13.284196
					CHANNELS 3 Zrotation Yrotation Xrotation
					JOINT RightToeEnd
					{
						OFFSET 0.009533 -1.634383 6.460591
						CHANNELS 3 Zrotation Yrotation Xrotation
						End Site
						{
							OFFSET 0.000000 0.000000 0.000000
						}
					}
				}
			}
		}
	}
}
MOTION
Frames: 4
Frame Time: 0.033333
-0.368416 95.732391 5.412936 2.268638 0.003441 3.853243 -0.185621 0.436529 0.041326 -0.062160 0.562944 -4.316461 1.025157 -0.963951 13.262590 10.498104 -3.287398 11.785797 -4.085561 -13.338129 -3.031379 2.190998 -16.414015 -11.558408 0.000077 -0.000021 0.000006 0.007831 -0.070852 -0.078301 0.716099 -3.764626 -10.656961 -0.714733 3.632892 -10.601525 0.940796 2.922033 12.131263 -62.721199 -61.990658 21.503227 179.859497 -43.106472 -179.716278 9.295952 -3.011239 2.896477 -5.882102 9.861278 0.702590 -10.936858 -0.360577 7.156197 0.000002 8.774813 -0.000002 -15.836457 18.280884 6.002648 -1.844031 2.498503 -2.507274 -10.163590 4.678941 4.621104 -20.975994 -0.000005 0.000004 -21.226254 2.451692 -3.593992 0.000000 -0.000006 0.000001 -1.362680 2.240797 -0.746322 -21.334892 0.584907 3.008320 -13.821197 -0.000003 0.000002 -23.887131 -0.249077 -0.839481 -59.734447 2.685694 -1.682736 -0.294023 1.679686 0.833256 -14.218192 0.093214 1.300580 -34.212006 -0.287564 0.967170 -20.033180 0.964535 1.212842 0.000000 -0.000000 0.000001 -3.440385 0.788232 0.501655 -15.928167 -3.167307 2.999704 -6.338817 -0.000001 0.000001 -18.123415 3.648176 -4.905661 -0.000004 -0.000000 -0.000001 0.157746 13.219730 9.398356 25.180744 27.179989 -43.914085 -179.192932 63.959896 -179.235001 -16.478115 5.879227 0.016654 2.243540 -5.255031 -3.180155 14.282878 -0.826592 6.952497 -0.000002 -12.690592 0.000000 15.590164 -17.500313 2.937205 1.665665 -1.955918 -2.878294 4.727794 -4.170583 4.993920 11.020511 0.000003 0.000002 12.109029 -3.735710 -2.866778 -0.000001 -0.000002 -0.000002 1.291985 -1.928547 -1.498088 14.800114 0.567467 3.865603 14.242553 -1.341735 -6.660648 19.631939 0.143926 -0.648241 49.415810 -0.713110 -6.285599 0.353029 -1.511148 -0.031938 20.222771 3.684308 2.316631 18.787247 0.000005 0.000002 10.751612 -0.479868 1.397905 0.000000 0.000001 0.000000 3.273805 0.305945 -0.580110 21.486794 11.830366 2.266133 8.162917 0.000001 0.000000 18.399054 -3.798980 -4.940563 0.000004 0.000000 -0.000001 8.084076 4.364998 -7.304947 -0.069925 -0.802710 24.327200 -12.171798 -3.277899 -18.261309 1.611137 -1.903489 -2.150943 -0.000000 0.000000 0.000002 -16.715523 -13.250546 -24.174059 0.349742 0.781913 23.482307 12.532393 -3.096927 1.916692 -1.461230 0.815826 -0.891358 -0.000000 -0.000000 -0.000001 
-0.066687 95.492645 5.534196 2.606151 0.365941 3.940699 -0.298818 0.543286 0.400573 -0.039449 0.533684 -4.223366 1.067721 -0.863228 13.678047 10.783888 -3.291598 11.989463 -4.179375 -13.633363 -3.020344 2.347600 -16.574612 -11.584819 0.000077 -0.000021 0.000006 0.010171 -0.043581 -0.061715 0.714525 -3.747539 -10.649887 -0.703923 3.654257 -10.606857 1.179263 2.904703 12.298618 -61.571152 -62.200439 20.731413 179.947327 -44.009705 -179.724289 8.998506 -3.168649 0.735741 -5.882101 9.861278 0.702590 -10.936860 -0.360576 7.156199 -0.000001 8.774813 -0.000003 -15.892592 18.474548 5.943530 -1.844031 2.498503 -2.507277 -10.163592 4.678942 4.621105 -20.976000 -0.000002 0.000004 -21.226255 2.451695 -3.593994 0.000000 -0.000006 0.000002 -1.362682 2.240797 -0.746322 -21.334892 0.584911 3.008321 -13.821197 -0.000001 0.000003 -23.887131 -0.249078 -0.839483 -59.949730 2.574410 -1.701835 -0.294024 1.679686 0.833254 -14.218194 0.093216 1.300578 -34.212006 -0.287561 0.967169 -20.033178 0.964534 1.212841 0.000000 0.000000 -0.000000 -3.440387 0.788232 0.501653 -15.928171 -3.167305 2.999703 -6.338817 -0.000001 0.000002 -18.123415 3.648178 -4.905663 -0.000004 -0.000000 -0.000003 0.259165 12.981469 9.709958 25.087883 26.515144 -43.291019 -179.014648 65.317589 -178.956467 -16.851051 6.223083 -0.306828 2.243539 -5.255033 -3.180155 14.282877 -0.826593 6.952497 -0.000002 -12.690587 -0.000001 15.539415 -17.493118 3.050145 1.665664 -1.955920 -2.878297 4.727796 -4.170582 4.993919 11.020508 0.000004 -0.000001 12.109028 -3.735710 -2.866777 -0.000000 -0.000000 -0.000001 1.291985 -1.928548 -1.498087 14.800114 0.567467 3.865605 14.242553 -1.341735 -6.660647 19.631939 0.143924 -0.648243 49.568218 -0.691996 -6.150224 0.353029 -1.511149 -0.031939 20.222767 3.684304 2.316631 18.787245 0.000003 0.000000 10.751610 -0.479867 1.397905 0.000001 0.000002 0.000000 3.273803 0.305947 -0.580109 21.486790 11.830360 2.266131 8.162918 0.000001 0.000000 18.399055 -3.798979 -4.940566 0.000004 0.000000 -0.000001 7.586760 4.302338 -7.912076 -0.090441 -0.765581 25.398645 -11.992152 -3.596447 -18.936853 1.607584 -1.910968 -2.046774 0.000000 -0.000000 0.000002 -17.392979 -13.606512 -24.864843 0.373851 0.761179 25.113520 12.834419 -3.017999 1.577989 -1.458087 0.789974 -1.098334 0.000000 0.000000 -0.000001 
0.287192 95.313255 5.367561 3.093419 0.784523 4.268756 -0.453866 0.582695 0.797741 -0.037666 0.467919 -4.097530 1.097963 -0.730373 14.090603 11.111979 -3.360934 12.157008 -4.204063 -13.888167 -3.023958 2.495950 -16.744434 -11.609454 0.000077 -0.000021 0.000006 0.016083 -0.038175 -0.051506 0.707824 -3.736260 -10.638457 -0.689655 3.665926 -10.612101 1.322307 2.764616 12.394556 -59.908951 -62.289902 19.663355 -179.936310 -45.021072 -179.846008 8.639079 -3.218080 -1.409434 -5.882103 9.861278 0.702590 -10.936858 -0.360575 7.156196 0.000001 8.774812 -0.000001 -15.931871 18.596706 5.870512 -1.844032 2.498502 -2.507274 -10.163589 4.678941 4.621104 -20.975992 -0.000003 0.000001 -21.226254 2.451692 -3.593996 0.000000 -0.000006 -0.000002 -1.362681 2.240796 -0.746322 -21.334892 0.584910 3.008320 -13.821197 -0.000001 0.000000 -23.887129 -0.249078 -0.839483 -60.049591 2.556345 -1.694094 -0.294023 1.679685 0.833255 -14.218195 0.093216 1.300578 -34.212002 -0.287563 0.967166 -20.033176 0.964533 1.212840 0.000001 0.000002 0.000000 -3.440384 0.788232 0.501656 -15.928169 -3.167305 2.999703 -6.338817 -0.000001 0.000001 -18.123413 3.648175 -4.905663 -0.000004 -0.000001 -0.000002 0.529305 12.686297 10.070827 25.058178 25.775171 -42.399265 -179.141556 66.493675 -179.001373 -16.913971 6.780777 -0.668578 2.243539 -5.255033 -3.180155 14.282878 -0.826593 6.952498 -0.000002 -12.690588 -0.000001 15.498916 -17.526659 3.077025 1.665663 -1.955919 -2.878296 4.727794 -4.170585 4.993919 11.020510 0.000005 -0.000000 12.109033 -3.735708 -2.866778 -0.000000 -0.000000 -0.000002 1.291982 -1.928548 -1.498087 14.800113 0.567467 3.865604 14.242553 -1.341732 -6.660646 19.631939 0.143926 -0.648241 49.754784 -0.693388 -6.084419 0.353029 -1.511150 -0.031941 20.222773 3.684305 2.316628 18.787245 0.000006 0.000001 10.751612 -0.479870 1.397905 0.000001 0.000001 0.000000 3.273806 0.305947 -0.580109 21.486790 11.830365 2.266131 8.162916 0.000003 0.000000 18.399054 -3.798980 -4.940566 0.000003 0.000000 -0.000000 6.857750 4.259767 -9.006317 -0.118553 -0.736061 26.499094 -11.772265 -3.945314 -19.332592 1.604545 -1.915293 -1.928482 -0.000000 0.000000 0.000002 -18.194393 -13.991697 -25.788736 0.409226 0.796269 26.487862 12.973531 -2.987784 1.678763 -1.451764 0.791971 -1.351354 0.000000 0.000000 -0.000001 
0.651673 95.215950 5.181759 3.738719 1.102291 4.994610 -0.640130 0.576546 1.222068 -0.038532 0.364147 -3.951901 1.113755 -0.641046 14.455127 11.444181 -3.498019 12.226893 -4.197317 -14.091167 -3.038758 2.661581 -16.867626 -11.504517 0.000077 -0.000021 0.000006 0.021533 -0.029722 -0.053637 0.693146 -3.704372 -10.628932 -0.670292 3.674046 -10.613183 1.344010 2.578281 12.493423 -57.706272 -62.370075 18.217247 -179.747940 -46.056789 179.889648 8.237021 -2.991239 -3.453852 -5.882100 9.861278 0.702591 -10.936858 -0.360574 7.156196 0.000002 8.774814 0.000002 -15.720125 18.600615 5.886066 -1.844031 2.498503 -2.507276 -10.163589 4.678940 4.621102 -20.975996 -0.000006 -0.000001 -21.226254 2.451691 -3.593993 0.000000 -0.000006 -0.000000 -1.362678 2.240797 -0.746323 -21.334896 0.584907 3.008319 -13.821194 -0.000004 0.000000 -23.887131 -0.249080 -0.839481 -59.929222 2.592278 -1.633338 -0.294025 1.679687 0.833255 -14.218192 0.093214 1.300577 -34.211998 -0.287567 0.967167 -20.033178 0.964534 1.212841 0.000000 0.000002 0.000001 -3.440386 0.788233 0.501654 -15.928165 -3.167307 2.999703 -6.338817 -0.000001 0.000000 -18.123413 3.648175 -4.905662 -0.000004 0.000000 -0.000003 0.857275 12.413365 10.428738 25.113743 24.929924 -41.480759 -179.678726 67.320641 -179.549728 -16.670868 7.519499 -1.114520 2.243540 -5.255033 -3.180155 14.282877 -0.826594 6.952492 -0.000001 -12.690588 0.000001 15.566808 -17.530148 3.029485 1.665666 -1.955921 -2.878297 4.727790 -4.170583 4.993918 11.020509 0.000004 -0.000002 12.109035 -3.735708 -2.866779 0.000000 0.000000 -0.000001 1.291984 -1.928547 -1.498088 14.800111 0.567467 3.865600 14.242554 -1.341735 -6.660650 19.631939 0.143927 -0.648247 50.124775 -0.689890 -6.053434 0.353028 -1.511148 -0.031938 20.222769 3.684307 2.316624 18.787245 0.000005 -0.000004 10.751611 -0.479870 1.397903 0.000001 -0.000000 0.000001 3.273803 0.305946 -0.580110 21.486792 11.830363 2.266128 8.162916 0.000001 -0.000002 18.399050 -3.798979 -4.940572 0.000004 0.000000 0.000000 5.884177 4.243820 -10.237299 -0.143023 -0.715113 26.998697 -11.547223 -4.216081 -19.527306 1.600163 -1.917578 -1.780732 0.000000 -0.000000 0.000002 -19.105431 -14.230135 -27.041634 0.441602 0.855073 27.493988 13.018078 -3.196924 2.134374 -1.451966 0.811173 -1.615952 0.000000 0.000000 -0.000001 
